<?xml version="1.0" standalone="no"?>
<!DOCTYPE svg PUBLIC "-//W3C//DTD SVG 20010904//EN"
 "http://www.w3.org/TR/2001/REC-SVG-20010904/DTD/svg10.dtd">
<svg version="1.0" xmlns="http://www.w3.org/2000/svg"
 width="300.000000pt" height="300.000000pt" viewBox="0 0 300.000000 300.000000"
 preserveAspectRatio="xMidYMid meet">

<g transform="translate(0.000000,300.000000) scale(0.100000,-0.100000)"
fill="#000000" stroke="none">
<path d="M0 1500 l0 -1500 1500 0 1500 0 0 1500 0 1500 -1500 0 -1500 0 0
-1500z m1130 40 l0 -791 -62 3 -63 3 -3 788 -2 787 65 0 65 0 0 -790z m670
530 l0 -150 -65 0 -65 0 0 -380 0 -380 94 0 93 0 7 98 c4 53 9 123 13 155 l6
58 96 -3 96 -3 0 -300 0 -300 -403 -3 -403 -2 3 147 3 148 48 3 47 3 0 379 0
379 -47 3 -48 3 -3 148 -3 147 266 0 265 0 0 -150z"/>
</g>
</svg>
